G04 EAGLE Gerber RS-274X export*
G75*
%MOMM*%
%FSLAX34Y34*%
%LPD*%
%INBottom Copper*%
%IPPOS*%
%AMOC8*
5,1,8,0,0,1.08239X$1,22.5*%
G01*
%ADD10R,1.524000X1.524000*%
%ADD11P,1.649562X8X22.500000*%
%ADD12C,1.120000*%
%ADD13R,1.130000X1.130000*%
%ADD14C,1.130000*%
%ADD15C,1.422400*%
%ADD16C,4.445000*%
%ADD17C,0.609600*%
%ADD18C,0.508000*%
%ADD19C,0.254000*%

G36*
X605908Y2556D02*
X605908Y2556D01*
X606027Y2563D01*
X606065Y2576D01*
X606106Y2581D01*
X606216Y2624D01*
X606329Y2661D01*
X606364Y2683D01*
X606401Y2698D01*
X606497Y2767D01*
X606598Y2831D01*
X606626Y2861D01*
X606659Y2884D01*
X606735Y2976D01*
X606816Y3063D01*
X606836Y3098D01*
X606861Y3129D01*
X606912Y3237D01*
X606970Y3341D01*
X606980Y3381D01*
X606997Y3417D01*
X607019Y3534D01*
X607049Y3649D01*
X607053Y3709D01*
X607057Y3729D01*
X607055Y3750D01*
X607059Y3810D01*
X607059Y758190D01*
X607044Y758308D01*
X607037Y758427D01*
X607024Y758465D01*
X607019Y758506D01*
X606976Y758616D01*
X606939Y758729D01*
X606917Y758764D01*
X606902Y758801D01*
X606833Y758897D01*
X606769Y758998D01*
X606739Y759026D01*
X606716Y759059D01*
X606624Y759135D01*
X606537Y759216D01*
X606502Y759236D01*
X606471Y759261D01*
X606363Y759312D01*
X606259Y759370D01*
X606219Y759380D01*
X606183Y759397D01*
X606066Y759419D01*
X605951Y759449D01*
X605891Y759453D01*
X605871Y759457D01*
X605850Y759455D01*
X605790Y759459D01*
X3810Y759459D01*
X3692Y759444D01*
X3573Y759437D01*
X3535Y759424D01*
X3494Y759419D01*
X3384Y759376D01*
X3271Y759339D01*
X3236Y759317D01*
X3199Y759302D01*
X3103Y759233D01*
X3002Y759169D01*
X2974Y759139D01*
X2941Y759116D01*
X2865Y759024D01*
X2784Y758937D01*
X2764Y758902D01*
X2739Y758871D01*
X2688Y758763D01*
X2630Y758659D01*
X2620Y758619D01*
X2603Y758583D01*
X2581Y758466D01*
X2551Y758351D01*
X2547Y758291D01*
X2543Y758271D01*
X2545Y758250D01*
X2541Y758190D01*
X2541Y3810D01*
X2556Y3692D01*
X2563Y3573D01*
X2576Y3535D01*
X2581Y3494D01*
X2624Y3384D01*
X2661Y3271D01*
X2683Y3236D01*
X2698Y3199D01*
X2767Y3103D01*
X2831Y3002D01*
X2861Y2974D01*
X2884Y2941D01*
X2976Y2865D01*
X3063Y2784D01*
X3098Y2764D01*
X3129Y2739D01*
X3237Y2688D01*
X3341Y2630D01*
X3381Y2620D01*
X3417Y2603D01*
X3534Y2581D01*
X3649Y2551D01*
X3709Y2547D01*
X3729Y2543D01*
X3750Y2545D01*
X3810Y2541D01*
X605790Y2541D01*
X605908Y2556D01*
G37*
%LPC*%
G36*
X75674Y24129D02*
X75674Y24129D01*
X74929Y24874D01*
X74929Y73660D01*
X74914Y73778D01*
X74907Y73897D01*
X74894Y73935D01*
X74889Y73976D01*
X74846Y74086D01*
X74809Y74199D01*
X74787Y74234D01*
X74772Y74271D01*
X74703Y74367D01*
X74639Y74468D01*
X74609Y74496D01*
X74586Y74529D01*
X74494Y74605D01*
X74407Y74686D01*
X74372Y74706D01*
X74341Y74731D01*
X74233Y74782D01*
X74129Y74840D01*
X74089Y74850D01*
X74053Y74867D01*
X73936Y74889D01*
X73821Y74919D01*
X73761Y74923D01*
X73741Y74927D01*
X73720Y74925D01*
X73660Y74929D01*
X24874Y74929D01*
X24129Y75674D01*
X24129Y686326D01*
X24874Y687071D01*
X73660Y687071D01*
X73778Y687086D01*
X73897Y687093D01*
X73935Y687106D01*
X73976Y687111D01*
X74086Y687154D01*
X74199Y687191D01*
X74234Y687213D01*
X74271Y687228D01*
X74367Y687297D01*
X74468Y687361D01*
X74496Y687391D01*
X74529Y687414D01*
X74605Y687506D01*
X74686Y687593D01*
X74706Y687628D01*
X74731Y687659D01*
X74782Y687767D01*
X74840Y687871D01*
X74850Y687911D01*
X74867Y687947D01*
X74889Y688064D01*
X74919Y688179D01*
X74923Y688239D01*
X74927Y688259D01*
X74925Y688280D01*
X74929Y688340D01*
X74929Y737126D01*
X75674Y737871D01*
X533926Y737871D01*
X534671Y737126D01*
X534671Y688340D01*
X534686Y688222D01*
X534693Y688103D01*
X534706Y688065D01*
X534711Y688024D01*
X534754Y687914D01*
X534791Y687801D01*
X534813Y687766D01*
X534828Y687729D01*
X534897Y687633D01*
X534961Y687532D01*
X534991Y687504D01*
X535014Y687471D01*
X535106Y687395D01*
X535193Y687314D01*
X535228Y687294D01*
X535259Y687269D01*
X535367Y687218D01*
X535471Y687160D01*
X535511Y687150D01*
X535547Y687133D01*
X535664Y687111D01*
X535779Y687081D01*
X535839Y687077D01*
X535859Y687073D01*
X535880Y687075D01*
X535940Y687071D01*
X584726Y687071D01*
X585471Y686326D01*
X585471Y75674D01*
X584726Y74929D01*
X535940Y74929D01*
X535822Y74914D01*
X535703Y74907D01*
X535665Y74894D01*
X535624Y74889D01*
X535514Y74846D01*
X535401Y74809D01*
X535366Y74787D01*
X535329Y74772D01*
X535233Y74703D01*
X535132Y74639D01*
X535104Y74609D01*
X535071Y74586D01*
X534995Y74494D01*
X534914Y74407D01*
X534894Y74372D01*
X534869Y74341D01*
X534818Y74233D01*
X534760Y74129D01*
X534750Y74089D01*
X534733Y74053D01*
X534711Y73936D01*
X534681Y73821D01*
X534677Y73761D01*
X534673Y73741D01*
X534675Y73720D01*
X534671Y73660D01*
X534671Y24874D01*
X533926Y24129D01*
X75674Y24129D01*
G37*
%LPD*%
%LPC*%
G36*
X40639Y726439D02*
X40639Y726439D01*
X40639Y748536D01*
X42255Y748354D01*
X44967Y747735D01*
X47592Y746817D01*
X50099Y745610D01*
X52454Y744130D01*
X54629Y742395D01*
X56595Y740429D01*
X58330Y738254D01*
X59810Y735899D01*
X61017Y733392D01*
X61935Y730767D01*
X62554Y728055D01*
X62736Y726439D01*
X40639Y726439D01*
G37*
%LPD*%
%LPC*%
G36*
X574039Y726439D02*
X574039Y726439D01*
X574039Y748536D01*
X575655Y748354D01*
X578367Y747735D01*
X580992Y746817D01*
X583499Y745610D01*
X585854Y744130D01*
X588029Y742395D01*
X589995Y740429D01*
X591730Y738254D01*
X593210Y735899D01*
X594417Y733392D01*
X595335Y730767D01*
X595954Y728055D01*
X596136Y726439D01*
X574039Y726439D01*
G37*
%LPD*%
%LPC*%
G36*
X40639Y40639D02*
X40639Y40639D01*
X40639Y62736D01*
X42255Y62554D01*
X44967Y61935D01*
X47592Y61017D01*
X50099Y59810D01*
X52454Y58330D01*
X54629Y56595D01*
X56595Y54629D01*
X58330Y52454D01*
X59810Y50099D01*
X61017Y47592D01*
X61935Y44967D01*
X62554Y42255D01*
X62736Y40639D01*
X40639Y40639D01*
G37*
%LPD*%
%LPC*%
G36*
X574039Y40639D02*
X574039Y40639D01*
X574039Y62736D01*
X575655Y62554D01*
X578367Y61935D01*
X580992Y61017D01*
X583499Y59810D01*
X585854Y58330D01*
X588029Y56595D01*
X589995Y54629D01*
X591730Y52454D01*
X593210Y50099D01*
X594417Y47592D01*
X595335Y44967D01*
X595954Y42255D01*
X596136Y40639D01*
X574039Y40639D01*
G37*
%LPD*%
%LPC*%
G36*
X13464Y726439D02*
X13464Y726439D01*
X13646Y728055D01*
X14265Y730767D01*
X15183Y733392D01*
X16390Y735899D01*
X17870Y738254D01*
X19605Y740429D01*
X21571Y742395D01*
X23746Y744130D01*
X26101Y745610D01*
X28608Y746817D01*
X31233Y747735D01*
X33945Y748354D01*
X35561Y748536D01*
X35561Y726439D01*
X13464Y726439D01*
G37*
%LPD*%
%LPC*%
G36*
X546864Y726439D02*
X546864Y726439D01*
X547046Y728055D01*
X547665Y730767D01*
X548583Y733392D01*
X549790Y735899D01*
X551270Y738254D01*
X553005Y740429D01*
X554971Y742395D01*
X557146Y744130D01*
X559501Y745610D01*
X562008Y746817D01*
X564633Y747735D01*
X567345Y748354D01*
X568961Y748536D01*
X568961Y726439D01*
X546864Y726439D01*
G37*
%LPD*%
%LPC*%
G36*
X574039Y721361D02*
X574039Y721361D01*
X596136Y721361D01*
X595954Y719745D01*
X595335Y717033D01*
X594417Y714408D01*
X593210Y711901D01*
X591730Y709546D01*
X589995Y707371D01*
X588029Y705405D01*
X585854Y703670D01*
X583499Y702190D01*
X580992Y700983D01*
X578367Y700065D01*
X575655Y699446D01*
X574039Y699264D01*
X574039Y721361D01*
G37*
%LPD*%
%LPC*%
G36*
X40639Y721361D02*
X40639Y721361D01*
X62736Y721361D01*
X62554Y719745D01*
X61935Y717033D01*
X61017Y714408D01*
X59810Y711901D01*
X58330Y709546D01*
X56595Y707371D01*
X54629Y705405D01*
X52454Y703670D01*
X50099Y702190D01*
X47592Y700983D01*
X44967Y700065D01*
X42255Y699446D01*
X40639Y699264D01*
X40639Y721361D01*
G37*
%LPD*%
%LPC*%
G36*
X13464Y40639D02*
X13464Y40639D01*
X13646Y42255D01*
X14265Y44967D01*
X15183Y47592D01*
X16390Y50099D01*
X17870Y52454D01*
X19605Y54629D01*
X21571Y56595D01*
X23746Y58330D01*
X26101Y59810D01*
X28608Y61017D01*
X31233Y61935D01*
X33945Y62554D01*
X35561Y62736D01*
X35561Y40639D01*
X13464Y40639D01*
G37*
%LPD*%
%LPC*%
G36*
X546864Y40639D02*
X546864Y40639D01*
X547046Y42255D01*
X547665Y44967D01*
X548583Y47592D01*
X549790Y50099D01*
X551270Y52454D01*
X553005Y54629D01*
X554971Y56595D01*
X557146Y58330D01*
X559501Y59810D01*
X562008Y61017D01*
X564633Y61935D01*
X567345Y62554D01*
X568961Y62736D01*
X568961Y40639D01*
X546864Y40639D01*
G37*
%LPD*%
%LPC*%
G36*
X574039Y35561D02*
X574039Y35561D01*
X596136Y35561D01*
X595954Y33945D01*
X595335Y31233D01*
X594417Y28608D01*
X593210Y26101D01*
X591730Y23746D01*
X589995Y21571D01*
X588029Y19605D01*
X585854Y17870D01*
X583499Y16390D01*
X580992Y15183D01*
X578367Y14265D01*
X575655Y13646D01*
X574039Y13464D01*
X574039Y35561D01*
G37*
%LPD*%
%LPC*%
G36*
X40639Y35561D02*
X40639Y35561D01*
X62736Y35561D01*
X62554Y33945D01*
X61935Y31233D01*
X61017Y28608D01*
X59810Y26101D01*
X58330Y23746D01*
X56595Y21571D01*
X54629Y19605D01*
X52454Y17870D01*
X50099Y16390D01*
X47592Y15183D01*
X44967Y14265D01*
X42255Y13646D01*
X40639Y13464D01*
X40639Y35561D01*
G37*
%LPD*%
%LPC*%
G36*
X567345Y699446D02*
X567345Y699446D01*
X564633Y700065D01*
X562008Y700983D01*
X559501Y702190D01*
X557146Y703670D01*
X554971Y705405D01*
X553005Y707371D01*
X551270Y709546D01*
X549790Y711901D01*
X548583Y714408D01*
X547665Y717033D01*
X547046Y719745D01*
X546864Y721361D01*
X568961Y721361D01*
X568961Y699264D01*
X567345Y699446D01*
G37*
%LPD*%
%LPC*%
G36*
X33945Y699446D02*
X33945Y699446D01*
X31233Y700065D01*
X28608Y700983D01*
X26101Y702190D01*
X23746Y703670D01*
X21571Y705405D01*
X19605Y707371D01*
X17870Y709546D01*
X16390Y711901D01*
X15183Y714408D01*
X14265Y717033D01*
X13646Y719745D01*
X13464Y721361D01*
X35561Y721361D01*
X35561Y699264D01*
X33945Y699446D01*
G37*
%LPD*%
%LPC*%
G36*
X567345Y13646D02*
X567345Y13646D01*
X564633Y14265D01*
X562008Y15183D01*
X559501Y16390D01*
X557146Y17870D01*
X554971Y19605D01*
X553005Y21571D01*
X551270Y23746D01*
X549790Y26101D01*
X548583Y28608D01*
X547665Y31233D01*
X547046Y33945D01*
X546864Y35561D01*
X568961Y35561D01*
X568961Y13464D01*
X567345Y13646D01*
G37*
%LPD*%
%LPC*%
G36*
X33945Y13646D02*
X33945Y13646D01*
X31233Y14265D01*
X28608Y15183D01*
X26101Y16390D01*
X23746Y17870D01*
X21571Y19605D01*
X19605Y21571D01*
X17870Y23746D01*
X16390Y26101D01*
X15183Y28608D01*
X14265Y31233D01*
X13646Y33945D01*
X13464Y35561D01*
X35561Y35561D01*
X35561Y13464D01*
X33945Y13646D01*
G37*
%LPD*%
%LPC*%
G36*
X571499Y723899D02*
X571499Y723899D01*
X571499Y723901D01*
X571501Y723901D01*
X571501Y723899D01*
X571499Y723899D01*
G37*
%LPD*%
%LPC*%
G36*
X38099Y723899D02*
X38099Y723899D01*
X38099Y723901D01*
X38101Y723901D01*
X38101Y723899D01*
X38099Y723899D01*
G37*
%LPD*%
%LPC*%
G36*
X571499Y38099D02*
X571499Y38099D01*
X571499Y38101D01*
X571501Y38101D01*
X571501Y38099D01*
X571499Y38099D01*
G37*
%LPD*%
%LPC*%
G36*
X38099Y38099D02*
X38099Y38099D01*
X38099Y38101D01*
X38101Y38101D01*
X38101Y38099D01*
X38099Y38099D01*
G37*
%LPD*%
D10*
X90850Y263900D03*
D11*
X90850Y289300D03*
X116250Y263900D03*
X116250Y289300D03*
X141650Y263900D03*
X141650Y289300D03*
X167050Y263900D03*
X167050Y289300D03*
X192450Y263900D03*
X192450Y289300D03*
X217850Y263900D03*
X217850Y289300D03*
X243250Y263900D03*
X243250Y289300D03*
X268650Y263900D03*
X268650Y289300D03*
X294050Y263900D03*
X294050Y289300D03*
X319450Y263900D03*
X319450Y289300D03*
X344850Y263900D03*
X344850Y289300D03*
X370250Y263900D03*
X370250Y289300D03*
X395650Y263900D03*
X395650Y289300D03*
X421050Y263900D03*
X421050Y289300D03*
X446450Y263900D03*
X446450Y289300D03*
X471850Y263900D03*
X471850Y289300D03*
X497250Y263900D03*
X497250Y289300D03*
X522650Y263900D03*
X522650Y289300D03*
D10*
X90850Y517900D03*
D11*
X90850Y543300D03*
X116250Y517900D03*
X116250Y543300D03*
X141650Y517900D03*
X141650Y543300D03*
X167050Y517900D03*
X167050Y543300D03*
X192450Y517900D03*
X192450Y543300D03*
X217850Y517900D03*
X217850Y543300D03*
X243250Y517900D03*
X243250Y543300D03*
X268650Y517900D03*
X268650Y543300D03*
X294050Y517900D03*
X294050Y543300D03*
X319450Y517900D03*
X319450Y543300D03*
X344850Y517900D03*
X344850Y543300D03*
X370250Y517900D03*
X370250Y543300D03*
X395650Y517900D03*
X395650Y543300D03*
X421050Y517900D03*
X421050Y543300D03*
X446450Y517900D03*
X446450Y543300D03*
X471850Y517900D03*
X471850Y543300D03*
X497250Y517900D03*
X497250Y543300D03*
X522650Y517900D03*
X522650Y543300D03*
D12*
X508000Y119900D03*
X508000Y184900D03*
D13*
X342900Y368300D03*
D14*
X317500Y368300D03*
X292100Y368300D03*
X266700Y368300D03*
X241300Y368300D03*
X215900Y368300D03*
X190500Y368300D03*
X165100Y368300D03*
X165100Y444500D03*
X190500Y444500D03*
X215900Y444500D03*
X241300Y444500D03*
X266700Y444500D03*
X292100Y444500D03*
X317500Y444500D03*
X342900Y444500D03*
D15*
X88900Y197612D02*
X88900Y183388D01*
X114300Y183388D02*
X114300Y197612D01*
X88900Y159512D02*
X88900Y145288D01*
X114300Y145288D02*
X114300Y159512D01*
X114300Y608838D02*
X114300Y623062D01*
X88900Y623062D02*
X88900Y608838D01*
X114300Y646938D02*
X114300Y661162D01*
X88900Y661162D02*
X88900Y646938D01*
X298450Y646938D02*
X298450Y661162D01*
X273050Y661162D02*
X273050Y646938D01*
X247650Y646938D02*
X247650Y661162D01*
X222250Y661162D02*
X222250Y646938D01*
X298450Y623062D02*
X298450Y608838D01*
X273050Y608838D02*
X273050Y623062D01*
X247650Y623062D02*
X247650Y608838D01*
X222250Y608838D02*
X222250Y623062D01*
X330200Y159512D02*
X330200Y145288D01*
X355600Y145288D02*
X355600Y159512D01*
X381000Y159512D02*
X381000Y145288D01*
X406400Y145288D02*
X406400Y159512D01*
X330200Y183388D02*
X330200Y197612D01*
X355600Y197612D02*
X355600Y183388D01*
X381000Y183388D02*
X381000Y197612D01*
X406400Y197612D02*
X406400Y183388D01*
X514350Y646938D02*
X514350Y661162D01*
X488950Y661162D02*
X488950Y646938D01*
X463550Y646938D02*
X463550Y661162D01*
X438150Y661162D02*
X438150Y646938D01*
X412750Y646938D02*
X412750Y661162D01*
X387350Y661162D02*
X387350Y646938D01*
X361950Y646938D02*
X361950Y661162D01*
X336550Y661162D02*
X336550Y646938D01*
D16*
X571500Y723900D03*
X38100Y723900D03*
X571500Y38100D03*
X38100Y38100D03*
D17*
X355600Y698500D03*
X254000Y723900D03*
D18*
X243250Y517900D02*
X305920Y455230D01*
X332675Y444500D02*
X342900Y444500D01*
X321945Y455230D02*
X305920Y455230D01*
X321945Y455230D02*
X332675Y444500D01*
X342900Y444500D02*
X304800Y406400D01*
X203200Y406400D02*
X165100Y368300D01*
X203200Y406400D02*
X304800Y406400D01*
X187189Y276600D02*
X179750Y269161D01*
X205150Y294561D02*
X212589Y302000D01*
X179750Y255950D02*
X114300Y190500D01*
X225800Y302000D02*
X292100Y368300D01*
X179750Y269161D02*
X179750Y255950D01*
X212589Y302000D02*
X225800Y302000D01*
X197711Y276600D02*
X187189Y276600D01*
X197711Y276600D02*
X205150Y284039D01*
X205150Y294561D01*
X161789Y276600D02*
X154350Y269161D01*
X154350Y255950D02*
X88900Y190500D01*
X154350Y255950D02*
X154350Y269161D01*
X161789Y276600D02*
X172311Y276600D01*
X179750Y284039D01*
X179750Y294561D01*
X215900Y330711D02*
X215900Y368300D01*
X215900Y330711D02*
X179750Y294561D01*
D19*
X409620Y284566D02*
X416316Y277870D01*
X432480Y277870D02*
X446450Y263900D01*
X326212Y368300D02*
X317500Y368300D01*
X416316Y277870D02*
X432480Y277870D01*
X335672Y358840D02*
X326212Y368300D01*
X409620Y291495D02*
X409620Y284566D01*
X409620Y291495D02*
X342275Y358840D01*
X335672Y358840D01*
X446450Y517900D02*
X432480Y531870D01*
X432480Y567085D01*
X412750Y586815D02*
X412750Y654050D01*
X412750Y586815D02*
X432480Y567085D01*
M02*
