G04 EAGLE Gerber RS-274X export*
G75*
%MOMM*%
%FSLAX34Y34*%
%LPD*%
%INSilkscreen Bottom*%
%IPPOS*%
%AMOC8*
5,1,8,0,0,1.08239X$1,22.5*%
G01*
%ADD10C,0.152400*%
%ADD11C,0.200000*%


D10*
X46482Y161901D02*
X62738Y161901D01*
X53707Y167320D01*
X62738Y172739D01*
X46482Y172739D01*
X44676Y179339D02*
X44676Y186564D01*
X46482Y191601D02*
X62738Y197019D01*
X46482Y202438D01*
X50546Y201083D02*
X50546Y192955D01*
X140462Y153162D02*
X156718Y153162D01*
X147687Y158581D01*
X156718Y163999D01*
X140462Y163999D01*
X138656Y170599D02*
X138656Y177824D01*
X149493Y184496D02*
X149493Y189012D01*
X149494Y189012D02*
X149492Y189145D01*
X149486Y189277D01*
X149476Y189409D01*
X149463Y189541D01*
X149445Y189673D01*
X149424Y189803D01*
X149399Y189934D01*
X149370Y190063D01*
X149337Y190191D01*
X149301Y190319D01*
X149261Y190445D01*
X149217Y190570D01*
X149169Y190694D01*
X149118Y190816D01*
X149063Y190937D01*
X149005Y191056D01*
X148943Y191174D01*
X148878Y191289D01*
X148809Y191403D01*
X148738Y191514D01*
X148662Y191623D01*
X148584Y191730D01*
X148503Y191835D01*
X148418Y191937D01*
X148331Y192037D01*
X148241Y192134D01*
X148148Y192229D01*
X148052Y192320D01*
X147954Y192409D01*
X147853Y192495D01*
X147749Y192578D01*
X147643Y192658D01*
X147535Y192734D01*
X147425Y192808D01*
X147312Y192878D01*
X147198Y192945D01*
X147081Y193008D01*
X146963Y193068D01*
X146843Y193125D01*
X146721Y193178D01*
X146598Y193227D01*
X146474Y193273D01*
X146348Y193315D01*
X146221Y193353D01*
X146093Y193388D01*
X145964Y193419D01*
X145835Y193446D01*
X145704Y193469D01*
X145573Y193489D01*
X145441Y193504D01*
X145309Y193516D01*
X145177Y193524D01*
X145044Y193528D01*
X144912Y193528D01*
X144779Y193524D01*
X144647Y193516D01*
X144515Y193504D01*
X144383Y193489D01*
X144252Y193469D01*
X144121Y193446D01*
X143992Y193419D01*
X143863Y193388D01*
X143735Y193353D01*
X143608Y193315D01*
X143482Y193273D01*
X143358Y193227D01*
X143235Y193178D01*
X143113Y193125D01*
X142993Y193068D01*
X142875Y193008D01*
X142758Y192945D01*
X142644Y192878D01*
X142531Y192808D01*
X142421Y192734D01*
X142313Y192658D01*
X142207Y192578D01*
X142103Y192495D01*
X142002Y192409D01*
X141904Y192320D01*
X141808Y192229D01*
X141715Y192134D01*
X141625Y192037D01*
X141538Y191937D01*
X141453Y191835D01*
X141372Y191730D01*
X141294Y191623D01*
X141218Y191514D01*
X141147Y191403D01*
X141078Y191289D01*
X141013Y191174D01*
X140951Y191056D01*
X140893Y190937D01*
X140838Y190816D01*
X140787Y190694D01*
X140739Y190570D01*
X140695Y190445D01*
X140655Y190319D01*
X140619Y190191D01*
X140586Y190063D01*
X140557Y189934D01*
X140532Y189803D01*
X140511Y189673D01*
X140493Y189541D01*
X140480Y189409D01*
X140470Y189277D01*
X140464Y189145D01*
X140462Y189012D01*
X140462Y184496D01*
X156718Y184496D01*
X156718Y189012D01*
X156716Y189131D01*
X156710Y189251D01*
X156700Y189370D01*
X156686Y189488D01*
X156669Y189607D01*
X156647Y189724D01*
X156622Y189841D01*
X156592Y189956D01*
X156559Y190071D01*
X156522Y190185D01*
X156482Y190297D01*
X156437Y190408D01*
X156389Y190517D01*
X156338Y190625D01*
X156283Y190731D01*
X156224Y190835D01*
X156162Y190937D01*
X156097Y191037D01*
X156028Y191135D01*
X155956Y191231D01*
X155881Y191324D01*
X155804Y191414D01*
X155723Y191502D01*
X155639Y191587D01*
X155552Y191669D01*
X155463Y191749D01*
X155371Y191825D01*
X155277Y191899D01*
X155180Y191969D01*
X155082Y192036D01*
X154981Y192100D01*
X154877Y192160D01*
X154772Y192217D01*
X154665Y192270D01*
X154557Y192320D01*
X154447Y192366D01*
X154335Y192408D01*
X154222Y192447D01*
X154108Y192482D01*
X153993Y192513D01*
X153876Y192541D01*
X153759Y192564D01*
X153642Y192584D01*
X153523Y192600D01*
X153404Y192612D01*
X153285Y192620D01*
X153166Y192624D01*
X153046Y192624D01*
X152927Y192620D01*
X152808Y192612D01*
X152689Y192600D01*
X152570Y192584D01*
X152453Y192564D01*
X152336Y192541D01*
X152219Y192513D01*
X152104Y192482D01*
X151990Y192447D01*
X151877Y192408D01*
X151765Y192366D01*
X151655Y192320D01*
X151547Y192270D01*
X151440Y192217D01*
X151335Y192160D01*
X151231Y192100D01*
X151130Y192036D01*
X151032Y191969D01*
X150935Y191899D01*
X150841Y191825D01*
X150749Y191749D01*
X150660Y191669D01*
X150573Y191587D01*
X150489Y191502D01*
X150408Y191414D01*
X150331Y191324D01*
X150256Y191231D01*
X150184Y191135D01*
X150115Y191037D01*
X150050Y190937D01*
X149988Y190835D01*
X149929Y190731D01*
X149874Y190625D01*
X149823Y190517D01*
X149775Y190408D01*
X149730Y190297D01*
X149690Y190185D01*
X149653Y190071D01*
X149620Y189956D01*
X149590Y189841D01*
X149565Y189724D01*
X149543Y189607D01*
X149526Y189488D01*
X149512Y189370D01*
X149502Y189251D01*
X149496Y189131D01*
X149494Y189012D01*
X156718Y610362D02*
X140462Y610362D01*
X147687Y615781D02*
X156718Y610362D01*
X147687Y615781D02*
X156718Y621199D01*
X140462Y621199D01*
X138656Y627799D02*
X138656Y635024D01*
X149493Y641696D02*
X149493Y646212D01*
X149494Y646212D02*
X149492Y646345D01*
X149486Y646477D01*
X149476Y646609D01*
X149463Y646741D01*
X149445Y646873D01*
X149424Y647003D01*
X149399Y647134D01*
X149370Y647263D01*
X149337Y647391D01*
X149301Y647519D01*
X149261Y647645D01*
X149217Y647770D01*
X149169Y647894D01*
X149118Y648016D01*
X149063Y648137D01*
X149005Y648256D01*
X148943Y648374D01*
X148878Y648489D01*
X148809Y648603D01*
X148738Y648714D01*
X148662Y648823D01*
X148584Y648930D01*
X148503Y649035D01*
X148418Y649137D01*
X148331Y649237D01*
X148241Y649334D01*
X148148Y649429D01*
X148052Y649520D01*
X147954Y649609D01*
X147853Y649695D01*
X147749Y649778D01*
X147643Y649858D01*
X147535Y649934D01*
X147425Y650008D01*
X147312Y650078D01*
X147198Y650145D01*
X147081Y650208D01*
X146963Y650268D01*
X146843Y650325D01*
X146721Y650378D01*
X146598Y650427D01*
X146474Y650473D01*
X146348Y650515D01*
X146221Y650553D01*
X146093Y650588D01*
X145964Y650619D01*
X145835Y650646D01*
X145704Y650669D01*
X145573Y650689D01*
X145441Y650704D01*
X145309Y650716D01*
X145177Y650724D01*
X145044Y650728D01*
X144912Y650728D01*
X144779Y650724D01*
X144647Y650716D01*
X144515Y650704D01*
X144383Y650689D01*
X144252Y650669D01*
X144121Y650646D01*
X143992Y650619D01*
X143863Y650588D01*
X143735Y650553D01*
X143608Y650515D01*
X143482Y650473D01*
X143358Y650427D01*
X143235Y650378D01*
X143113Y650325D01*
X142993Y650268D01*
X142875Y650208D01*
X142758Y650145D01*
X142644Y650078D01*
X142531Y650008D01*
X142421Y649934D01*
X142313Y649858D01*
X142207Y649778D01*
X142103Y649695D01*
X142002Y649609D01*
X141904Y649520D01*
X141808Y649429D01*
X141715Y649334D01*
X141625Y649237D01*
X141538Y649137D01*
X141453Y649035D01*
X141372Y648930D01*
X141294Y648823D01*
X141218Y648714D01*
X141147Y648603D01*
X141078Y648489D01*
X141013Y648374D01*
X140951Y648256D01*
X140893Y648137D01*
X140838Y648016D01*
X140787Y647894D01*
X140739Y647770D01*
X140695Y647645D01*
X140655Y647519D01*
X140619Y647391D01*
X140586Y647263D01*
X140557Y647134D01*
X140532Y647003D01*
X140511Y646873D01*
X140493Y646741D01*
X140480Y646609D01*
X140470Y646477D01*
X140464Y646345D01*
X140462Y646212D01*
X140462Y641696D01*
X156718Y641696D01*
X156718Y646212D01*
X156716Y646331D01*
X156710Y646451D01*
X156700Y646570D01*
X156686Y646688D01*
X156669Y646807D01*
X156647Y646924D01*
X156622Y647041D01*
X156592Y647156D01*
X156559Y647271D01*
X156522Y647385D01*
X156482Y647497D01*
X156437Y647608D01*
X156389Y647717D01*
X156338Y647825D01*
X156283Y647931D01*
X156224Y648035D01*
X156162Y648137D01*
X156097Y648237D01*
X156028Y648335D01*
X155956Y648431D01*
X155881Y648524D01*
X155804Y648614D01*
X155723Y648702D01*
X155639Y648787D01*
X155552Y648869D01*
X155463Y648949D01*
X155371Y649025D01*
X155277Y649099D01*
X155180Y649169D01*
X155082Y649236D01*
X154981Y649300D01*
X154877Y649360D01*
X154772Y649417D01*
X154665Y649470D01*
X154557Y649520D01*
X154447Y649566D01*
X154335Y649608D01*
X154222Y649647D01*
X154108Y649682D01*
X153993Y649713D01*
X153876Y649741D01*
X153759Y649764D01*
X153642Y649784D01*
X153523Y649800D01*
X153404Y649812D01*
X153285Y649820D01*
X153166Y649824D01*
X153046Y649824D01*
X152927Y649820D01*
X152808Y649812D01*
X152689Y649800D01*
X152570Y649784D01*
X152453Y649764D01*
X152336Y649741D01*
X152219Y649713D01*
X152104Y649682D01*
X151990Y649647D01*
X151877Y649608D01*
X151765Y649566D01*
X151655Y649520D01*
X151547Y649470D01*
X151440Y649417D01*
X151335Y649360D01*
X151231Y649300D01*
X151130Y649236D01*
X151032Y649169D01*
X150935Y649099D01*
X150841Y649025D01*
X150749Y648949D01*
X150660Y648869D01*
X150573Y648787D01*
X150489Y648702D01*
X150408Y648614D01*
X150331Y648524D01*
X150256Y648431D01*
X150184Y648335D01*
X150115Y648237D01*
X150050Y648137D01*
X149988Y648035D01*
X149929Y647931D01*
X149874Y647825D01*
X149823Y647717D01*
X149775Y647608D01*
X149730Y647497D01*
X149690Y647385D01*
X149653Y647271D01*
X149620Y647156D01*
X149590Y647041D01*
X149565Y646924D01*
X149543Y646807D01*
X149526Y646688D01*
X149512Y646570D01*
X149502Y646451D01*
X149496Y646331D01*
X149494Y646212D01*
X75438Y619101D02*
X59182Y619101D01*
X66407Y624520D02*
X75438Y619101D01*
X66407Y624520D02*
X75438Y629939D01*
X59182Y629939D01*
X57376Y636539D02*
X57376Y643764D01*
X59182Y648801D02*
X75438Y654219D01*
X59182Y659638D01*
X63246Y658283D02*
X63246Y650155D01*
D11*
X353000Y439400D02*
X353000Y362650D01*
X155000Y373400D02*
X155000Y439400D01*
D10*
X273812Y396134D02*
X284988Y396134D01*
X273812Y394892D02*
X273812Y397376D01*
X284988Y397376D02*
X284988Y394892D01*
X273812Y404616D02*
X273812Y407099D01*
X273812Y404616D02*
X273814Y404518D01*
X273820Y404421D01*
X273829Y404324D01*
X273843Y404227D01*
X273860Y404131D01*
X273881Y404036D01*
X273905Y403942D01*
X273934Y403848D01*
X273966Y403756D01*
X274001Y403665D01*
X274040Y403576D01*
X274083Y403488D01*
X274129Y403402D01*
X274178Y403318D01*
X274231Y403236D01*
X274286Y403156D01*
X274345Y403078D01*
X274407Y403003D01*
X274472Y402930D01*
X274540Y402860D01*
X274610Y402792D01*
X274683Y402727D01*
X274758Y402665D01*
X274836Y402606D01*
X274916Y402551D01*
X274998Y402498D01*
X275082Y402449D01*
X275168Y402403D01*
X275256Y402360D01*
X275345Y402321D01*
X275436Y402286D01*
X275528Y402254D01*
X275622Y402225D01*
X275716Y402201D01*
X275811Y402180D01*
X275907Y402163D01*
X276004Y402149D01*
X276101Y402140D01*
X276198Y402134D01*
X276296Y402132D01*
X282504Y402132D01*
X282602Y402134D01*
X282699Y402140D01*
X282796Y402149D01*
X282893Y402163D01*
X282989Y402180D01*
X283084Y402201D01*
X283178Y402225D01*
X283272Y402254D01*
X283364Y402286D01*
X283455Y402321D01*
X283544Y402360D01*
X283632Y402403D01*
X283718Y402449D01*
X283802Y402498D01*
X283884Y402551D01*
X283964Y402606D01*
X284042Y402665D01*
X284117Y402727D01*
X284190Y402792D01*
X284260Y402860D01*
X284328Y402930D01*
X284393Y403003D01*
X284455Y403078D01*
X284514Y403156D01*
X284569Y403236D01*
X284622Y403318D01*
X284671Y403402D01*
X284717Y403488D01*
X284760Y403576D01*
X284799Y403665D01*
X284834Y403756D01*
X284866Y403848D01*
X284895Y403942D01*
X284919Y404036D01*
X284940Y404131D01*
X284957Y404227D01*
X284971Y404324D01*
X284980Y404421D01*
X284986Y404518D01*
X284988Y404616D01*
X284988Y407099D01*
X282504Y411699D02*
X284988Y414803D01*
X273812Y414803D01*
X273812Y411699D02*
X273812Y417908D01*
X95250Y177800D02*
X82550Y177800D01*
X95250Y177800D02*
X101600Y184150D01*
X101600Y196850D01*
X95250Y203200D01*
X76200Y196850D02*
X76200Y184150D01*
X82550Y177800D01*
X76200Y196850D02*
X82550Y203200D01*
X95250Y203200D01*
X101600Y184150D02*
X107950Y177800D01*
X120650Y177800D01*
X127000Y184150D01*
X127000Y196850D01*
X120650Y203200D01*
X107950Y203200D01*
X101600Y196850D01*
X95250Y139700D02*
X82550Y139700D01*
X95250Y139700D02*
X101600Y146050D01*
X101600Y158750D01*
X95250Y165100D01*
X76200Y158750D02*
X76200Y146050D01*
X82550Y139700D01*
X76200Y158750D02*
X82550Y165100D01*
X95250Y165100D01*
X101600Y146050D02*
X107950Y139700D01*
X120650Y139700D01*
X127000Y146050D01*
X127000Y158750D01*
X120650Y165100D01*
X107950Y165100D01*
X101600Y158750D01*
X107950Y628650D02*
X120650Y628650D01*
X107950Y628650D02*
X101600Y622300D01*
X101600Y609600D01*
X107950Y603250D01*
X127000Y609600D02*
X127000Y622300D01*
X120650Y628650D01*
X127000Y609600D02*
X120650Y603250D01*
X107950Y603250D01*
X101600Y622300D02*
X95250Y628650D01*
X82550Y628650D01*
X76200Y622300D01*
X76200Y609600D01*
X82550Y603250D01*
X95250Y603250D01*
X101600Y609600D01*
X107950Y666750D02*
X120650Y666750D01*
X107950Y666750D02*
X101600Y660400D01*
X101600Y647700D01*
X107950Y641350D01*
X127000Y647700D02*
X127000Y660400D01*
X120650Y666750D01*
X127000Y647700D02*
X120650Y641350D01*
X107950Y641350D01*
X101600Y660400D02*
X95250Y666750D01*
X82550Y666750D01*
X76200Y660400D01*
X76200Y647700D01*
X82550Y641350D01*
X95250Y641350D01*
X101600Y647700D01*
M02*
