G04 EAGLE Gerber RS-274X export*
G75*
%MOMM*%
%FSLAX34Y34*%
%LPD*%
%INSoldermask Top*%
%IPPOS*%
%AMOC8*
5,1,8,0,0,1.08239X$1,22.5*%
G01*
%ADD10R,1.676400X1.676400*%
%ADD11P,1.814519X8X22.500000*%
%ADD12C,1.272400*%
%ADD13R,1.282400X1.282400*%
%ADD14C,1.282400*%
%ADD15C,1.574800*%
%ADD16R,1.422400X1.295400*%
%ADD17C,0.609600*%
%ADD18C,1.168400*%
%ADD19C,4.597400*%


D10*
X90850Y263900D03*
D11*
X90850Y289300D03*
X116250Y263900D03*
X116250Y289300D03*
X141650Y263900D03*
X141650Y289300D03*
X167050Y263900D03*
X167050Y289300D03*
X192450Y263900D03*
X192450Y289300D03*
X217850Y263900D03*
X217850Y289300D03*
X243250Y263900D03*
X243250Y289300D03*
X268650Y263900D03*
X268650Y289300D03*
X294050Y263900D03*
X294050Y289300D03*
X319450Y263900D03*
X319450Y289300D03*
X344850Y263900D03*
X344850Y289300D03*
X370250Y263900D03*
X370250Y289300D03*
X395650Y263900D03*
X395650Y289300D03*
X421050Y263900D03*
X421050Y289300D03*
X446450Y263900D03*
X446450Y289300D03*
X471850Y263900D03*
X471850Y289300D03*
X497250Y263900D03*
X497250Y289300D03*
X522650Y263900D03*
X522650Y289300D03*
D10*
X90850Y517900D03*
D11*
X90850Y543300D03*
X116250Y517900D03*
X116250Y543300D03*
X141650Y517900D03*
X141650Y543300D03*
X167050Y517900D03*
X167050Y543300D03*
X192450Y517900D03*
X192450Y543300D03*
X217850Y517900D03*
X217850Y543300D03*
X243250Y517900D03*
X243250Y543300D03*
X268650Y517900D03*
X268650Y543300D03*
X294050Y517900D03*
X294050Y543300D03*
X319450Y517900D03*
X319450Y543300D03*
X344850Y517900D03*
X344850Y543300D03*
X370250Y517900D03*
X370250Y543300D03*
X395650Y517900D03*
X395650Y543300D03*
X421050Y517900D03*
X421050Y543300D03*
X446450Y517900D03*
X446450Y543300D03*
X471850Y517900D03*
X471850Y543300D03*
X497250Y517900D03*
X497250Y543300D03*
X522650Y517900D03*
X522650Y543300D03*
D12*
X508000Y119900D03*
X508000Y184900D03*
D13*
X342900Y368300D03*
D14*
X317500Y368300D03*
X292100Y368300D03*
X266700Y368300D03*
X241300Y368300D03*
X215900Y368300D03*
X190500Y368300D03*
X165100Y368300D03*
X165100Y444500D03*
X190500Y444500D03*
X215900Y444500D03*
X241300Y444500D03*
X266700Y444500D03*
X292100Y444500D03*
X317500Y444500D03*
X342900Y444500D03*
D15*
X88900Y197612D02*
X88900Y183388D01*
X114300Y183388D02*
X114300Y197612D01*
X88900Y159512D02*
X88900Y145288D01*
X114300Y145288D02*
X114300Y159512D01*
X114300Y608838D02*
X114300Y623062D01*
X88900Y623062D02*
X88900Y608838D01*
X114300Y646938D02*
X114300Y661162D01*
X88900Y661162D02*
X88900Y646938D01*
X298450Y646938D02*
X298450Y661162D01*
X273050Y661162D02*
X273050Y646938D01*
X247650Y646938D02*
X247650Y661162D01*
X222250Y661162D02*
X222250Y646938D01*
X298450Y623062D02*
X298450Y608838D01*
X273050Y608838D02*
X273050Y623062D01*
X247650Y623062D02*
X247650Y608838D01*
X222250Y608838D02*
X222250Y623062D01*
X330200Y159512D02*
X330200Y145288D01*
X355600Y145288D02*
X355600Y159512D01*
X381000Y159512D02*
X381000Y145288D01*
X406400Y145288D02*
X406400Y159512D01*
X330200Y183388D02*
X330200Y197612D01*
X355600Y197612D02*
X355600Y183388D01*
X381000Y183388D02*
X381000Y197612D01*
X406400Y197612D02*
X406400Y183388D01*
X514350Y646938D02*
X514350Y661162D01*
X488950Y661162D02*
X488950Y646938D01*
X463550Y646938D02*
X463550Y661162D01*
X438150Y661162D02*
X438150Y646938D01*
X412750Y646938D02*
X412750Y661162D01*
X387350Y661162D02*
X387350Y646938D01*
X361950Y646938D02*
X361950Y661162D01*
X336550Y661162D02*
X336550Y646938D01*
D16*
X514350Y701040D03*
X514350Y683260D03*
X488950Y701040D03*
X488950Y683260D03*
X463550Y701040D03*
X463550Y683260D03*
X438150Y701040D03*
X438150Y683260D03*
X412750Y701040D03*
X412750Y683260D03*
X387350Y701040D03*
X387350Y683260D03*
D17*
X474980Y50800D02*
X474982Y50987D01*
X474989Y51174D01*
X475001Y51361D01*
X475017Y51547D01*
X475037Y51733D01*
X475062Y51918D01*
X475092Y52103D01*
X475126Y52287D01*
X475165Y52470D01*
X475208Y52652D01*
X475256Y52832D01*
X475308Y53012D01*
X475365Y53190D01*
X475425Y53367D01*
X475491Y53542D01*
X475560Y53716D01*
X475634Y53888D01*
X475712Y54058D01*
X475794Y54226D01*
X475880Y54392D01*
X475970Y54556D01*
X476064Y54717D01*
X476162Y54877D01*
X476264Y55033D01*
X476370Y55188D01*
X476480Y55339D01*
X476593Y55488D01*
X476710Y55634D01*
X476830Y55777D01*
X476954Y55917D01*
X477081Y56054D01*
X477212Y56188D01*
X477346Y56319D01*
X477483Y56446D01*
X477623Y56570D01*
X477766Y56690D01*
X477912Y56807D01*
X478061Y56920D01*
X478212Y57030D01*
X478367Y57136D01*
X478523Y57238D01*
X478683Y57336D01*
X478844Y57430D01*
X479008Y57520D01*
X479174Y57606D01*
X479342Y57688D01*
X479512Y57766D01*
X479684Y57840D01*
X479858Y57909D01*
X480033Y57975D01*
X480210Y58035D01*
X480388Y58092D01*
X480568Y58144D01*
X480748Y58192D01*
X480930Y58235D01*
X481113Y58274D01*
X481297Y58308D01*
X481482Y58338D01*
X481667Y58363D01*
X481853Y58383D01*
X482039Y58399D01*
X482226Y58411D01*
X482413Y58418D01*
X482600Y58420D01*
X482787Y58418D01*
X482974Y58411D01*
X483161Y58399D01*
X483347Y58383D01*
X483533Y58363D01*
X483718Y58338D01*
X483903Y58308D01*
X484087Y58274D01*
X484270Y58235D01*
X484452Y58192D01*
X484632Y58144D01*
X484812Y58092D01*
X484990Y58035D01*
X485167Y57975D01*
X485342Y57909D01*
X485516Y57840D01*
X485688Y57766D01*
X485858Y57688D01*
X486026Y57606D01*
X486192Y57520D01*
X486356Y57430D01*
X486517Y57336D01*
X486677Y57238D01*
X486833Y57136D01*
X486988Y57030D01*
X487139Y56920D01*
X487288Y56807D01*
X487434Y56690D01*
X487577Y56570D01*
X487717Y56446D01*
X487854Y56319D01*
X487988Y56188D01*
X488119Y56054D01*
X488246Y55917D01*
X488370Y55777D01*
X488490Y55634D01*
X488607Y55488D01*
X488720Y55339D01*
X488830Y55188D01*
X488936Y55033D01*
X489038Y54877D01*
X489136Y54717D01*
X489230Y54556D01*
X489320Y54392D01*
X489406Y54226D01*
X489488Y54058D01*
X489566Y53888D01*
X489640Y53716D01*
X489709Y53542D01*
X489775Y53367D01*
X489835Y53190D01*
X489892Y53012D01*
X489944Y52832D01*
X489992Y52652D01*
X490035Y52470D01*
X490074Y52287D01*
X490108Y52103D01*
X490138Y51918D01*
X490163Y51733D01*
X490183Y51547D01*
X490199Y51361D01*
X490211Y51174D01*
X490218Y50987D01*
X490220Y50800D01*
X490218Y50613D01*
X490211Y50426D01*
X490199Y50239D01*
X490183Y50053D01*
X490163Y49867D01*
X490138Y49682D01*
X490108Y49497D01*
X490074Y49313D01*
X490035Y49130D01*
X489992Y48948D01*
X489944Y48768D01*
X489892Y48588D01*
X489835Y48410D01*
X489775Y48233D01*
X489709Y48058D01*
X489640Y47884D01*
X489566Y47712D01*
X489488Y47542D01*
X489406Y47374D01*
X489320Y47208D01*
X489230Y47044D01*
X489136Y46883D01*
X489038Y46723D01*
X488936Y46567D01*
X488830Y46412D01*
X488720Y46261D01*
X488607Y46112D01*
X488490Y45966D01*
X488370Y45823D01*
X488246Y45683D01*
X488119Y45546D01*
X487988Y45412D01*
X487854Y45281D01*
X487717Y45154D01*
X487577Y45030D01*
X487434Y44910D01*
X487288Y44793D01*
X487139Y44680D01*
X486988Y44570D01*
X486833Y44464D01*
X486677Y44362D01*
X486517Y44264D01*
X486356Y44170D01*
X486192Y44080D01*
X486026Y43994D01*
X485858Y43912D01*
X485688Y43834D01*
X485516Y43760D01*
X485342Y43691D01*
X485167Y43625D01*
X484990Y43565D01*
X484812Y43508D01*
X484632Y43456D01*
X484452Y43408D01*
X484270Y43365D01*
X484087Y43326D01*
X483903Y43292D01*
X483718Y43262D01*
X483533Y43237D01*
X483347Y43217D01*
X483161Y43201D01*
X482974Y43189D01*
X482787Y43182D01*
X482600Y43180D01*
X482413Y43182D01*
X482226Y43189D01*
X482039Y43201D01*
X481853Y43217D01*
X481667Y43237D01*
X481482Y43262D01*
X481297Y43292D01*
X481113Y43326D01*
X480930Y43365D01*
X480748Y43408D01*
X480568Y43456D01*
X480388Y43508D01*
X480210Y43565D01*
X480033Y43625D01*
X479858Y43691D01*
X479684Y43760D01*
X479512Y43834D01*
X479342Y43912D01*
X479174Y43994D01*
X479008Y44080D01*
X478844Y44170D01*
X478683Y44264D01*
X478523Y44362D01*
X478367Y44464D01*
X478212Y44570D01*
X478061Y44680D01*
X477912Y44793D01*
X477766Y44910D01*
X477623Y45030D01*
X477483Y45154D01*
X477346Y45281D01*
X477212Y45412D01*
X477081Y45546D01*
X476954Y45683D01*
X476830Y45823D01*
X476710Y45966D01*
X476593Y46112D01*
X476480Y46261D01*
X476370Y46412D01*
X476264Y46567D01*
X476162Y46723D01*
X476064Y46883D01*
X475970Y47044D01*
X475880Y47208D01*
X475794Y47374D01*
X475712Y47542D01*
X475634Y47712D01*
X475560Y47884D01*
X475491Y48058D01*
X475425Y48233D01*
X475365Y48410D01*
X475308Y48588D01*
X475256Y48768D01*
X475208Y48948D01*
X475165Y49130D01*
X475126Y49313D01*
X475092Y49497D01*
X475062Y49682D01*
X475037Y49867D01*
X475017Y50053D01*
X475001Y50239D01*
X474989Y50426D01*
X474982Y50613D01*
X474980Y50800D01*
D18*
X482600Y50800D03*
D17*
X563880Y660400D02*
X563882Y660587D01*
X563889Y660774D01*
X563901Y660961D01*
X563917Y661147D01*
X563937Y661333D01*
X563962Y661518D01*
X563992Y661703D01*
X564026Y661887D01*
X564065Y662070D01*
X564108Y662252D01*
X564156Y662432D01*
X564208Y662612D01*
X564265Y662790D01*
X564325Y662967D01*
X564391Y663142D01*
X564460Y663316D01*
X564534Y663488D01*
X564612Y663658D01*
X564694Y663826D01*
X564780Y663992D01*
X564870Y664156D01*
X564964Y664317D01*
X565062Y664477D01*
X565164Y664633D01*
X565270Y664788D01*
X565380Y664939D01*
X565493Y665088D01*
X565610Y665234D01*
X565730Y665377D01*
X565854Y665517D01*
X565981Y665654D01*
X566112Y665788D01*
X566246Y665919D01*
X566383Y666046D01*
X566523Y666170D01*
X566666Y666290D01*
X566812Y666407D01*
X566961Y666520D01*
X567112Y666630D01*
X567267Y666736D01*
X567423Y666838D01*
X567583Y666936D01*
X567744Y667030D01*
X567908Y667120D01*
X568074Y667206D01*
X568242Y667288D01*
X568412Y667366D01*
X568584Y667440D01*
X568758Y667509D01*
X568933Y667575D01*
X569110Y667635D01*
X569288Y667692D01*
X569468Y667744D01*
X569648Y667792D01*
X569830Y667835D01*
X570013Y667874D01*
X570197Y667908D01*
X570382Y667938D01*
X570567Y667963D01*
X570753Y667983D01*
X570939Y667999D01*
X571126Y668011D01*
X571313Y668018D01*
X571500Y668020D01*
X571687Y668018D01*
X571874Y668011D01*
X572061Y667999D01*
X572247Y667983D01*
X572433Y667963D01*
X572618Y667938D01*
X572803Y667908D01*
X572987Y667874D01*
X573170Y667835D01*
X573352Y667792D01*
X573532Y667744D01*
X573712Y667692D01*
X573890Y667635D01*
X574067Y667575D01*
X574242Y667509D01*
X574416Y667440D01*
X574588Y667366D01*
X574758Y667288D01*
X574926Y667206D01*
X575092Y667120D01*
X575256Y667030D01*
X575417Y666936D01*
X575577Y666838D01*
X575733Y666736D01*
X575888Y666630D01*
X576039Y666520D01*
X576188Y666407D01*
X576334Y666290D01*
X576477Y666170D01*
X576617Y666046D01*
X576754Y665919D01*
X576888Y665788D01*
X577019Y665654D01*
X577146Y665517D01*
X577270Y665377D01*
X577390Y665234D01*
X577507Y665088D01*
X577620Y664939D01*
X577730Y664788D01*
X577836Y664633D01*
X577938Y664477D01*
X578036Y664317D01*
X578130Y664156D01*
X578220Y663992D01*
X578306Y663826D01*
X578388Y663658D01*
X578466Y663488D01*
X578540Y663316D01*
X578609Y663142D01*
X578675Y662967D01*
X578735Y662790D01*
X578792Y662612D01*
X578844Y662432D01*
X578892Y662252D01*
X578935Y662070D01*
X578974Y661887D01*
X579008Y661703D01*
X579038Y661518D01*
X579063Y661333D01*
X579083Y661147D01*
X579099Y660961D01*
X579111Y660774D01*
X579118Y660587D01*
X579120Y660400D01*
X579118Y660213D01*
X579111Y660026D01*
X579099Y659839D01*
X579083Y659653D01*
X579063Y659467D01*
X579038Y659282D01*
X579008Y659097D01*
X578974Y658913D01*
X578935Y658730D01*
X578892Y658548D01*
X578844Y658368D01*
X578792Y658188D01*
X578735Y658010D01*
X578675Y657833D01*
X578609Y657658D01*
X578540Y657484D01*
X578466Y657312D01*
X578388Y657142D01*
X578306Y656974D01*
X578220Y656808D01*
X578130Y656644D01*
X578036Y656483D01*
X577938Y656323D01*
X577836Y656167D01*
X577730Y656012D01*
X577620Y655861D01*
X577507Y655712D01*
X577390Y655566D01*
X577270Y655423D01*
X577146Y655283D01*
X577019Y655146D01*
X576888Y655012D01*
X576754Y654881D01*
X576617Y654754D01*
X576477Y654630D01*
X576334Y654510D01*
X576188Y654393D01*
X576039Y654280D01*
X575888Y654170D01*
X575733Y654064D01*
X575577Y653962D01*
X575417Y653864D01*
X575256Y653770D01*
X575092Y653680D01*
X574926Y653594D01*
X574758Y653512D01*
X574588Y653434D01*
X574416Y653360D01*
X574242Y653291D01*
X574067Y653225D01*
X573890Y653165D01*
X573712Y653108D01*
X573532Y653056D01*
X573352Y653008D01*
X573170Y652965D01*
X572987Y652926D01*
X572803Y652892D01*
X572618Y652862D01*
X572433Y652837D01*
X572247Y652817D01*
X572061Y652801D01*
X571874Y652789D01*
X571687Y652782D01*
X571500Y652780D01*
X571313Y652782D01*
X571126Y652789D01*
X570939Y652801D01*
X570753Y652817D01*
X570567Y652837D01*
X570382Y652862D01*
X570197Y652892D01*
X570013Y652926D01*
X569830Y652965D01*
X569648Y653008D01*
X569468Y653056D01*
X569288Y653108D01*
X569110Y653165D01*
X568933Y653225D01*
X568758Y653291D01*
X568584Y653360D01*
X568412Y653434D01*
X568242Y653512D01*
X568074Y653594D01*
X567908Y653680D01*
X567744Y653770D01*
X567583Y653864D01*
X567423Y653962D01*
X567267Y654064D01*
X567112Y654170D01*
X566961Y654280D01*
X566812Y654393D01*
X566666Y654510D01*
X566523Y654630D01*
X566383Y654754D01*
X566246Y654881D01*
X566112Y655012D01*
X565981Y655146D01*
X565854Y655283D01*
X565730Y655423D01*
X565610Y655566D01*
X565493Y655712D01*
X565380Y655861D01*
X565270Y656012D01*
X565164Y656167D01*
X565062Y656323D01*
X564964Y656483D01*
X564870Y656644D01*
X564780Y656808D01*
X564694Y656974D01*
X564612Y657142D01*
X564534Y657312D01*
X564460Y657484D01*
X564391Y657658D01*
X564325Y657833D01*
X564265Y658010D01*
X564208Y658188D01*
X564156Y658368D01*
X564108Y658548D01*
X564065Y658730D01*
X564026Y658913D01*
X563992Y659097D01*
X563962Y659282D01*
X563937Y659467D01*
X563917Y659653D01*
X563901Y659839D01*
X563889Y660026D01*
X563882Y660213D01*
X563880Y660400D01*
D18*
X571500Y660400D03*
D17*
X119380Y50800D02*
X119382Y50987D01*
X119389Y51174D01*
X119401Y51361D01*
X119417Y51547D01*
X119437Y51733D01*
X119462Y51918D01*
X119492Y52103D01*
X119526Y52287D01*
X119565Y52470D01*
X119608Y52652D01*
X119656Y52832D01*
X119708Y53012D01*
X119765Y53190D01*
X119825Y53367D01*
X119891Y53542D01*
X119960Y53716D01*
X120034Y53888D01*
X120112Y54058D01*
X120194Y54226D01*
X120280Y54392D01*
X120370Y54556D01*
X120464Y54717D01*
X120562Y54877D01*
X120664Y55033D01*
X120770Y55188D01*
X120880Y55339D01*
X120993Y55488D01*
X121110Y55634D01*
X121230Y55777D01*
X121354Y55917D01*
X121481Y56054D01*
X121612Y56188D01*
X121746Y56319D01*
X121883Y56446D01*
X122023Y56570D01*
X122166Y56690D01*
X122312Y56807D01*
X122461Y56920D01*
X122612Y57030D01*
X122767Y57136D01*
X122923Y57238D01*
X123083Y57336D01*
X123244Y57430D01*
X123408Y57520D01*
X123574Y57606D01*
X123742Y57688D01*
X123912Y57766D01*
X124084Y57840D01*
X124258Y57909D01*
X124433Y57975D01*
X124610Y58035D01*
X124788Y58092D01*
X124968Y58144D01*
X125148Y58192D01*
X125330Y58235D01*
X125513Y58274D01*
X125697Y58308D01*
X125882Y58338D01*
X126067Y58363D01*
X126253Y58383D01*
X126439Y58399D01*
X126626Y58411D01*
X126813Y58418D01*
X127000Y58420D01*
X127187Y58418D01*
X127374Y58411D01*
X127561Y58399D01*
X127747Y58383D01*
X127933Y58363D01*
X128118Y58338D01*
X128303Y58308D01*
X128487Y58274D01*
X128670Y58235D01*
X128852Y58192D01*
X129032Y58144D01*
X129212Y58092D01*
X129390Y58035D01*
X129567Y57975D01*
X129742Y57909D01*
X129916Y57840D01*
X130088Y57766D01*
X130258Y57688D01*
X130426Y57606D01*
X130592Y57520D01*
X130756Y57430D01*
X130917Y57336D01*
X131077Y57238D01*
X131233Y57136D01*
X131388Y57030D01*
X131539Y56920D01*
X131688Y56807D01*
X131834Y56690D01*
X131977Y56570D01*
X132117Y56446D01*
X132254Y56319D01*
X132388Y56188D01*
X132519Y56054D01*
X132646Y55917D01*
X132770Y55777D01*
X132890Y55634D01*
X133007Y55488D01*
X133120Y55339D01*
X133230Y55188D01*
X133336Y55033D01*
X133438Y54877D01*
X133536Y54717D01*
X133630Y54556D01*
X133720Y54392D01*
X133806Y54226D01*
X133888Y54058D01*
X133966Y53888D01*
X134040Y53716D01*
X134109Y53542D01*
X134175Y53367D01*
X134235Y53190D01*
X134292Y53012D01*
X134344Y52832D01*
X134392Y52652D01*
X134435Y52470D01*
X134474Y52287D01*
X134508Y52103D01*
X134538Y51918D01*
X134563Y51733D01*
X134583Y51547D01*
X134599Y51361D01*
X134611Y51174D01*
X134618Y50987D01*
X134620Y50800D01*
X134618Y50613D01*
X134611Y50426D01*
X134599Y50239D01*
X134583Y50053D01*
X134563Y49867D01*
X134538Y49682D01*
X134508Y49497D01*
X134474Y49313D01*
X134435Y49130D01*
X134392Y48948D01*
X134344Y48768D01*
X134292Y48588D01*
X134235Y48410D01*
X134175Y48233D01*
X134109Y48058D01*
X134040Y47884D01*
X133966Y47712D01*
X133888Y47542D01*
X133806Y47374D01*
X133720Y47208D01*
X133630Y47044D01*
X133536Y46883D01*
X133438Y46723D01*
X133336Y46567D01*
X133230Y46412D01*
X133120Y46261D01*
X133007Y46112D01*
X132890Y45966D01*
X132770Y45823D01*
X132646Y45683D01*
X132519Y45546D01*
X132388Y45412D01*
X132254Y45281D01*
X132117Y45154D01*
X131977Y45030D01*
X131834Y44910D01*
X131688Y44793D01*
X131539Y44680D01*
X131388Y44570D01*
X131233Y44464D01*
X131077Y44362D01*
X130917Y44264D01*
X130756Y44170D01*
X130592Y44080D01*
X130426Y43994D01*
X130258Y43912D01*
X130088Y43834D01*
X129916Y43760D01*
X129742Y43691D01*
X129567Y43625D01*
X129390Y43565D01*
X129212Y43508D01*
X129032Y43456D01*
X128852Y43408D01*
X128670Y43365D01*
X128487Y43326D01*
X128303Y43292D01*
X128118Y43262D01*
X127933Y43237D01*
X127747Y43217D01*
X127561Y43201D01*
X127374Y43189D01*
X127187Y43182D01*
X127000Y43180D01*
X126813Y43182D01*
X126626Y43189D01*
X126439Y43201D01*
X126253Y43217D01*
X126067Y43237D01*
X125882Y43262D01*
X125697Y43292D01*
X125513Y43326D01*
X125330Y43365D01*
X125148Y43408D01*
X124968Y43456D01*
X124788Y43508D01*
X124610Y43565D01*
X124433Y43625D01*
X124258Y43691D01*
X124084Y43760D01*
X123912Y43834D01*
X123742Y43912D01*
X123574Y43994D01*
X123408Y44080D01*
X123244Y44170D01*
X123083Y44264D01*
X122923Y44362D01*
X122767Y44464D01*
X122612Y44570D01*
X122461Y44680D01*
X122312Y44793D01*
X122166Y44910D01*
X122023Y45030D01*
X121883Y45154D01*
X121746Y45281D01*
X121612Y45412D01*
X121481Y45546D01*
X121354Y45683D01*
X121230Y45823D01*
X121110Y45966D01*
X120993Y46112D01*
X120880Y46261D01*
X120770Y46412D01*
X120664Y46567D01*
X120562Y46723D01*
X120464Y46883D01*
X120370Y47044D01*
X120280Y47208D01*
X120194Y47374D01*
X120112Y47542D01*
X120034Y47712D01*
X119960Y47884D01*
X119891Y48058D01*
X119825Y48233D01*
X119765Y48410D01*
X119708Y48588D01*
X119656Y48768D01*
X119608Y48948D01*
X119565Y49130D01*
X119526Y49313D01*
X119492Y49497D01*
X119462Y49682D01*
X119437Y49867D01*
X119417Y50053D01*
X119401Y50239D01*
X119389Y50426D01*
X119382Y50613D01*
X119380Y50800D01*
D18*
X127000Y50800D03*
D16*
X393700Y46990D03*
X393700Y29210D03*
D19*
X571500Y723900D03*
X38100Y723900D03*
X571500Y38100D03*
X38100Y38100D03*
D16*
X304800Y702310D03*
X304800Y720090D03*
X279400Y702310D03*
X279400Y720090D03*
X330200Y116840D03*
X330200Y99060D03*
X355600Y116840D03*
X355600Y99060D03*
M02*
