M48
;GenerationSoftware,Autodesk,EAGLE,9.6.2*%
;CreationDate,2025-04-30T04:59:54Z*%
FMAT,2
ICI,OFF
METRIC,TZ,000.000
T6C0.305
T5C0.730
T4C0.800
T3C0.889
T2C1.016
T1C3.175
%
G90
M71
T1
X3810Y3810
X57150Y72390
X3810Y72390
X57150Y3810
T2
X8890Y15240
X11430Y61595
X8890Y61595
X11430Y65405
X8890Y65405
X29845Y65405
X27305Y65405
X24765Y65405
X22225Y65405
X29845Y61595
X27305Y61595
X24765Y61595
X22225Y61595
X33020Y15240
X35560Y15240
X38100Y15240
X33020Y19050
X35560Y19050
X38100Y19050
X40640Y19050
X51435Y65405
X48895Y65405
X46355Y65405
X43815Y65405
X41275Y65405
X38735Y65405
X36195Y65405
X33655Y65405
X8890Y19050
X11430Y19050
X11430Y15240
X40640Y15240
T3
X52265Y26390
X52265Y28930
X9085Y51790
X9085Y54330
X11625Y51790
X11625Y54330
X14165Y51790
X14165Y54330
X16705Y51790
X16705Y54330
X19245Y51790
X19245Y54330
X21785Y51790
X21785Y54330
X24325Y51790
X24325Y54330
X26865Y51790
X26865Y54330
X29405Y51790
X29405Y54330
X31945Y51790
X31945Y54330
X34485Y51790
X34485Y54330
X37025Y51790
X37025Y54330
X39565Y51790
X39565Y54330
X47185Y26390
X42105Y54330
X44645Y51790
X44645Y54330
X47185Y51790
X47185Y54330
X49725Y51790
X49725Y54330
X52265Y51790
X52265Y54330
X26865Y26390
X9085Y26390
X9085Y28930
X11625Y26390
X11625Y28930
X14165Y26390
X14165Y28930
X16705Y26390
X16705Y28930
X19245Y26390
X19245Y28930
X21785Y26390
X21785Y28930
X24325Y26390
X24325Y28930
X26865Y28930
X29405Y26390
X42105Y51790
X29405Y28930
X31945Y26390
X31945Y28930
X34485Y26390
X34485Y28930
X37025Y26390
X37025Y28930
X39565Y26390
X39565Y28930
X42105Y26390
X42105Y28930
X44645Y26390
X44645Y28930
X47185Y28930
X49725Y26390
X49725Y28930
T4
X50800Y11990
X50800Y18490
T5
X26670Y44450
X29210Y44450
X31750Y44450
X34290Y44450
X34290Y36830
X31750Y36830
X29210Y36830
X26670Y36830
X24130Y36830
X21590Y36830
X19050Y36830
X16510Y36830
X16510Y44450
X19050Y44450
X21590Y44450
X24130Y44450
T6
X35560Y69850
X25400Y72390
M30